<svg width="560" height="680" viewBox="0 0 280 340" xmlns="http://www.w3.org/2000/svg">
  <path d="M140,30 L226,30 L226,150 Q226,252 140,332 Q54,252 54,150 L54,30 Z" fill="#2D241D" stroke="#C49A6C" stroke-width="4"/>
  <path d="M140,38 L218,38 L218,150 Q218,246 140,320 Q62,246 62,150 L62,38 Z" fill="none" stroke="#C49A6C" stroke-width="1.2" stroke-dasharray="5 4"/>
  <g stroke="#C49A6C" stroke-width="1.5" opacity="0.7">
    <line x1="140" y1="26" x2="140" y2="34"/>
    <line x1="160" y1="27" x2="158" y2="35"/>
    <line x1="180" y1="29" x2="177" y2="37"/>
    <line x1="200" y1="31" x2="196" y2="39"/>
    <line x1="120" y1="27" x2="122" y2="35"/>
    <line x1="100" y1="29" x2="103" y2="37"/>
    <line x1="80" y1="31" x2="84" y2="39"/>
  </g>
  <path d="M20,46 L60,58 L60,76 L20,68 Z" fill="#8B5E3C"/>
  <path d="M260,46 L220,58 L220,76 L260,68 Z" fill="#8B5E3C"/>
  <rect x="58" y="44" width="164" height="34" fill="#C49A6C"/>
  <path d="M58,44 L58,78 L48,78 L48,44 Z" fill="#A8794E"/>
  <path d="M222,44 L222,78 L232,78 L232,44 Z" fill="#A8794E"/>
  <text x="140" y="67" text-anchor="middle" font-family="'Bebas Neue',sans-serif" font-size="22" letter-spacing="4" fill="#161616">RANGEBORN</text>
  <circle cx="140" cy="168" r="62" fill="#161616" stroke="#C49A6C" stroke-width="2"/>
  <circle cx="140" cy="168" r="54" fill="none" stroke="#C49A6C" stroke-width="1" opacity="0.5"/>
  <g transform="translate(138,184) scale(1.42)">
    <path d="M-18,16 L-26,46 L-16,46 L-10,18 Z" fill="#C49A6C"/>
    <path d="M-2,20 L-2,48 L8,48 L6,20 Z" fill="#C49A6C"/>
    <path d="M-30,-4 Q-58,-2 -62,18 Q-64,30 -54,34 Q-58,20 -50,8 Q-44,-2 -30,4 Z" fill="#F3EEE7"/>
    <ellipse cx="-8" cy="-2" rx="32" ry="20" fill="#F3EEE7" transform="rotate(-18,-8,-2)"/>
    <path d="M14,-14 Q26,-34 22,-50 Q30,-40 28,-22 Q24,-10 14,-2 Z" fill="#F3EEE7"/>
    <ellipse cx="30" cy="-52" rx="13" ry="9" fill="#F3EEE7" transform="rotate(-50,30,-52)"/>
    <ellipse cx="40" cy="-60" rx="7" ry="5" fill="#F3EEE7" transform="rotate(-50,40,-60)"/>
    <polygon points="22,-60 18,-72 28,-64" fill="#F3EEE7"/>
    <path d="M10,-16 Q4,-26 12,-34 Q8,-42 16,-50 Q12,-56 20,-62 Q22,-54 28,-48 Q22,-42 26,-34 Q18,-28 22,-20 Q16,-14 10,-16 Z" fill="#8B5E3C"/>
    <path d="M2,-14 Q-4,4 4,18 L14,16 Q8,2 12,-12 Z" fill="#8B5E3C"/>
    <path d="M16,-10 Q18,8 30,16 L38,8 Q28,2 24,-14 Z" fill="#8B5E3C"/>
    <ellipse cx="6" cy="19" rx="6" ry="3.5" fill="#5C3A1E"/>
    <ellipse cx="36" cy="11" rx="6" ry="3.5" fill="#5C3A1E" transform="rotate(20,36,11)"/>
    <ellipse cx="-22" cy="47" rx="6" ry="3.5" fill="#5C3A1E"/>
    <ellipse cx="2" cy="49" rx="6" ry="3.5" fill="#5C3A1E"/>
  </g>
  <text x="86" y="172" text-anchor="middle" font-size="13" fill="#C49A6C">&#9733;</text>
  <text x="194" y="172" text-anchor="middle" font-size="13" fill="#C49A6C">&#9733;</text>
  <path d="M50,268 Q140,296 230,268 L230,300 Q140,328 50,300 Z" fill="#C49A6C"/>
  <path d="M50,268 Q42,278 36,268 L36,296 Q44,306 50,300 Z" fill="#A8794E"/>
  <path d="M230,268 Q238,278 244,268 L244,296 Q236,306 230,300 Z" fill="#A8794E"/>
  <text x="140" y="286" text-anchor="middle" font-family="'Oswald',sans-serif" font-size="9.5" font-weight="600" letter-spacing="1.6" fill="#161616">BUILT FOR THE LONG RIDE</text>
  <text x="140" y="300" text-anchor="middle" font-family="'Oswald',sans-serif" font-size="8" letter-spacing="2.5" fill="#3A2E1E">EST. 2022</text>
</svg>
